<svg width="25" height="25" viewBox="0 0 25 25" fill="none" xmlns="http://www.w3.org/2000/svg">
<path d="M18.75 22.9167C17.8819 22.9167 17.1441 22.6129 16.5365 22.0052C15.9288 21.3976 15.625 20.6598 15.625 19.7917C15.625 19.6702 15.6337 19.5441 15.651 19.4136C15.6684 19.283 15.6944 19.166 15.7292 19.0625L8.38542 14.7917C8.09028 15.0521 7.76042 15.2563 7.39583 15.4042C7.03125 15.5521 6.64931 15.6257 6.25 15.625C5.38194 15.625 4.6441 15.3212 4.03646 14.7136C3.42882 14.1059 3.125 13.3681 3.125 12.5C3.125 11.632 3.42882 10.8941 4.03646 10.2865C4.6441 9.67886 5.38194 9.37504 6.25 9.37504C6.64931 9.37504 7.03125 9.449 7.39583 9.59692C7.76042 9.74483 8.09028 9.94865 8.38542 10.2084L15.7292 5.93754C15.6944 5.83337 15.6684 5.71636 15.651 5.5865C15.6337 5.45664 15.625 5.3306 15.625 5.20837C15.625 4.34032 15.9288 3.60247 16.5365 2.99483C17.1441 2.38719 17.8819 2.08337 18.75 2.08337C19.6181 2.08337 20.3559 2.38719 20.9635 2.99483C21.5712 3.60247 21.875 4.34032 21.875 5.20837C21.875 6.07643 21.5712 6.81428 20.9635 7.42192C20.3559 8.02955 19.6181 8.33337 18.75 8.33337C18.3507 8.33337 17.9687 8.25976 17.6042 8.11254C17.2396 7.96532 16.9097 7.76115 16.6146 7.50004L9.27083 11.7709C9.30555 11.875 9.3316 11.9924 9.34896 12.123C9.36632 12.2535 9.375 12.3792 9.375 12.5C9.375 12.6216 9.36632 12.7476 9.34896 12.8782C9.3316 13.0087 9.30555 13.1257 9.27083 13.2292L16.6146 17.5C16.9097 17.2396 17.2396 17.0358 17.6042 16.8886C17.9687 16.7414 18.3507 16.6674 18.75 16.6667C19.6181 16.6667 20.3559 16.9705 20.9635 17.5782C21.5712 18.1858 21.875 18.9237 21.875 19.7917C21.875 20.6598 21.5712 21.3976 20.9635 22.0052C20.3559 22.6129 19.6181 22.9167 18.75 22.9167Z" fill="black"/>
</svg>
